<svg xmlns="http://www.w3.org/2000/svg" xmlns:xlink="http://www.w3.org/1999/xlink" width="500" zoomAndPan="magnify" viewBox="0 0 375 374.999991" height="500" preserveAspectRatio="xMidYMid meet" version="1.0"><defs><g/></defs><g fill="#ffffff" fill-opacity="1"><g transform="translate(120.003748, 195.389423)"><g><path d="M 46.21875 -49.375 C 46.613281 -49.375 46.957031 -49.222656 47.25 -48.921875 C 47.550781 -48.628906 47.703125 -48.285156 47.703125 -47.890625 L 47.703125 -41.078125 C 47.703125 -40.679688 47.550781 -40.332031 47.25 -40.03125 C 46.957031 -39.738281 46.613281 -39.59375 46.21875 -39.59375 L 18.65625 -39.59375 C 18.195312 -39.59375 17.707031 -39.332031 17.1875 -38.8125 L 14.015625 -35.84375 C 13.554688 -35.382812 13.328125 -34.828125 13.328125 -34.171875 L 13.328125 -22.3125 L 39.890625 -22.3125 C 40.285156 -22.3125 40.628906 -22.160156 40.921875 -21.859375 C 41.222656 -21.566406 41.375 -21.226562 41.375 -20.84375 L 41.375 -14.015625 C 41.375 -13.628906 41.222656 -13.285156 40.921875 -12.984375 C 40.628906 -12.691406 40.285156 -12.546875 39.890625 -12.546875 L 13.328125 -12.546875 L 13.328125 -1.484375 C 13.328125 -1.085938 13.175781 -0.738281 12.875 -0.4375 C 12.582031 -0.144531 12.238281 0 11.84375 0 L 4.4375 0 C 4.039062 0 3.695312 -0.144531 3.40625 -0.4375 C 3.113281 -0.738281 2.96875 -1.085938 2.96875 -1.484375 L 2.96875 -36.734375 C 2.96875 -37.265625 3.097656 -37.757812 3.359375 -38.21875 C 3.617188 -38.675781 3.878906 -39.035156 4.140625 -39.296875 L 13.03125 -48.1875 C 13.820312 -48.976562 14.78125 -49.375 15.90625 -49.375 Z M 46.21875 -49.375 "/></g></g></g><g fill="#ffffff" fill-opacity="1"><g transform="translate(170.658453, 195.389423)"><g><path d="M 80.28125 -39.296875 C 81.007812 -38.578125 81.375 -37.722656 81.375 -36.734375 L 81.375 -1.484375 C 81.375 -1.085938 81.222656 -0.738281 80.921875 -0.4375 C 80.628906 -0.144531 80.285156 0 79.890625 0 L 73.265625 0 C 72.878906 0 72.535156 -0.144531 72.234375 -0.4375 C 71.941406 -0.738281 71.796875 -1.085938 71.796875 -1.484375 L 71.796875 -33.96875 C 71.796875 -34.695312 71.5625 -35.257812 71.09375 -35.65625 L 67.34375 -39.296875 C 67.082031 -39.492188 66.753906 -39.59375 66.359375 -39.59375 L 53.21875 -39.59375 C 52.894531 -39.59375 52.566406 -39.492188 52.234375 -39.296875 L 48.484375 -35.84375 C 48.222656 -35.644531 48.023438 -35.347656 47.890625 -34.953125 L 47.890625 -1.484375 C 47.890625 -1.085938 47.738281 -0.738281 47.4375 -0.4375 C 47.144531 -0.144531 46.800781 0 46.40625 0 L 39.703125 0 C 39.304688 0 38.957031 -0.144531 38.65625 -0.4375 C 38.363281 -0.738281 38.21875 -1.085938 38.21875 -1.484375 L 38.21875 -34.953125 C 38.082031 -35.347656 37.882812 -35.644531 37.625 -35.84375 L 33.875 -39.296875 C 33.601562 -39.492188 33.273438 -39.59375 32.890625 -39.59375 L 18.265625 -39.59375 C 17.941406 -39.59375 17.613281 -39.492188 17.28125 -39.296875 L 13.234375 -35.453125 C 12.773438 -34.992188 12.546875 -34.429688 12.546875 -33.765625 L 12.546875 -1.484375 C 12.546875 -1.085938 12.394531 -0.738281 12.09375 -0.4375 C 11.800781 -0.144531 11.457031 0 11.0625 0 L 4.4375 0 C 4.039062 0 3.695312 -0.144531 3.40625 -0.4375 C 3.113281 -0.738281 2.96875 -1.085938 2.96875 -1.484375 L 2.96875 -36.734375 C 2.96875 -37.265625 3.082031 -37.742188 3.3125 -38.171875 C 3.539062 -38.597656 3.785156 -38.972656 4.046875 -39.296875 L 12.734375 -48.1875 C 13.523438 -48.976562 14.515625 -49.375 15.703125 -49.375 L 35.15625 -49.375 C 36.34375 -49.375 37.332031 -48.976562 38.125 -48.1875 L 43.0625 -43.15625 L 48 -48.1875 C 48.78125 -48.976562 49.765625 -49.375 50.953125 -49.375 L 68.625 -49.375 C 69.945312 -49.375 70.9375 -48.976562 71.59375 -48.1875 Z M 80.28125 -39.296875 "/></g></g></g><g fill="#ffffff" fill-opacity="1"><g transform="translate(101.480755, 221.139845)"><g><path d="M 3.078125 -14.671875 L 3.078125 0 L 1.828125 0 L 1.828125 -14.671875 Z M 11.125 -14.671875 L 11.125 -13.53125 L 3.625 -13.53125 L 3.625 -14.671875 Z M 10.984375 -8.09375 L 10.984375 -6.953125 L 3.625 -6.953125 L 3.625 -8.09375 Z M 10.984375 -8.09375 "/></g></g></g><g fill="#ffffff" fill-opacity="1"><g transform="translate(113.402626, 221.139845)"><g><path d="M 2.921875 -12.296875 L 1.78125 -12.296875 L 1.78125 -14.03125 L 2.921875 -14.03125 Z M 2.921875 -10.625 L 2.921875 0 L 1.78125 0 L 1.78125 -10.625 Z M 2.921875 -10.625 "/></g></g></g><g fill="#ffffff" fill-opacity="1"><g transform="translate(118.109786, 221.139845)"><g><path d="M 6.578125 -10.890625 C 7.234375 -10.890625 7.828125 -10.765625 8.359375 -10.515625 C 8.890625 -10.273438 9.3125 -9.9375 9.625 -9.5 C 9.9375 -9.0625 10.09375 -8.539062 10.09375 -7.9375 L 10.09375 0 L 8.90625 0 L 8.90625 -7.65625 C 8.894531 -8.332031 8.660156 -8.832031 8.203125 -9.15625 C 7.753906 -9.488281 7.140625 -9.65625 6.359375 -9.65625 C 5.921875 -9.65625 5.425781 -9.550781 4.875 -9.34375 C 4.320312 -9.144531 3.867188 -8.875 3.515625 -8.53125 L 3.515625 -9.984375 C 3.867188 -10.234375 4.316406 -10.445312 4.859375 -10.625 C 5.398438 -10.800781 5.972656 -10.890625 6.578125 -10.890625 Z M 1.78125 -10.625 L 2.96875 -10.625 L 2.96875 0 L 1.78125 0 Z M 1.78125 -10.625 "/></g></g></g><g fill="#ffffff" fill-opacity="1"><g transform="translate(129.987666, 221.139845)"><g><path d="M 8.53125 -7.4375 C 8.53125 -8.226562 8.265625 -8.828125 7.734375 -9.234375 C 7.203125 -9.648438 6.546875 -9.859375 5.765625 -9.859375 C 5.085938 -9.859375 4.488281 -9.710938 3.96875 -9.421875 C 3.445312 -9.140625 2.953125 -8.753906 2.484375 -8.265625 L 1.71875 -9.109375 C 2.269531 -9.710938 2.867188 -10.160156 3.515625 -10.453125 C 4.160156 -10.742188 4.925781 -10.890625 5.8125 -10.890625 C 6.53125 -10.890625 7.179688 -10.769531 7.765625 -10.53125 C 8.347656 -10.300781 8.8125 -9.929688 9.15625 -9.421875 C 9.507812 -8.921875 9.6875 -8.273438 9.6875 -7.484375 L 9.6875 0 L 8.53125 0 Z M 5.328125 -0.8125 C 5.765625 -0.8125 6.234375 -0.921875 6.734375 -1.140625 C 7.234375 -1.359375 7.648438 -1.609375 7.984375 -1.890625 L 7.984375 -0.59375 C 7.554688 -0.269531 7.085938 -0.046875 6.578125 0.078125 C 6.078125 0.203125 5.523438 0.265625 4.921875 0.265625 C 4.328125 0.265625 3.742188 0.128906 3.171875 -0.140625 C 2.597656 -0.410156 2.125 -0.8125 1.75 -1.34375 C 1.382812 -1.875 1.203125 -2.519531 1.203125 -3.28125 C 1.203125 -4.050781 1.394531 -4.707031 1.78125 -5.25 C 2.164062 -5.800781 2.671875 -6.21875 3.296875 -6.5 C 3.929688 -6.789062 4.609375 -6.9375 5.328125 -6.9375 C 5.941406 -6.9375 6.472656 -6.867188 6.921875 -6.734375 C 7.367188 -6.597656 7.722656 -6.46875 7.984375 -6.34375 L 7.984375 -4.96875 C 7.585938 -5.238281 7.148438 -5.445312 6.671875 -5.59375 C 6.203125 -5.75 5.753906 -5.828125 5.328125 -5.828125 C 4.460938 -5.828125 3.757812 -5.585938 3.21875 -5.109375 C 2.6875 -4.640625 2.421875 -4.019531 2.421875 -3.25 C 2.421875 -2.507812 2.6875 -1.914062 3.21875 -1.46875 C 3.757812 -1.03125 4.460938 -0.8125 5.328125 -0.8125 Z M 5.328125 -0.8125 "/></g></g></g><g fill="#ffffff" fill-opacity="1"><g transform="translate(141.447618, 221.139845)"><g><path d="M 6.578125 -10.890625 C 7.234375 -10.890625 7.828125 -10.765625 8.359375 -10.515625 C 8.890625 -10.273438 9.3125 -9.9375 9.625 -9.5 C 9.9375 -9.0625 10.09375 -8.539062 10.09375 -7.9375 L 10.09375 0 L 8.90625 0 L 8.90625 -7.65625 C 8.894531 -8.332031 8.660156 -8.832031 8.203125 -9.15625 C 7.753906 -9.488281 7.140625 -9.65625 6.359375 -9.65625 C 5.921875 -9.65625 5.425781 -9.550781 4.875 -9.34375 C 4.320312 -9.144531 3.867188 -8.875 3.515625 -8.53125 L 3.515625 -9.984375 C 3.867188 -10.234375 4.316406 -10.445312 4.859375 -10.625 C 5.398438 -10.800781 5.972656 -10.890625 6.578125 -10.890625 Z M 1.78125 -10.625 L 2.96875 -10.625 L 2.96875 0 L 1.78125 0 Z M 1.78125 -10.625 "/></g></g></g><g fill="#ffffff" fill-opacity="1"><g transform="translate(153.325498, 221.139845)"><g><path d="M 6.40625 -9.8125 C 5.613281 -9.8125 4.925781 -9.632812 4.34375 -9.28125 C 3.757812 -8.925781 3.300781 -8.441406 2.96875 -7.828125 C 2.644531 -7.210938 2.453125 -6.507812 2.390625 -5.71875 L 1.1875 -5.71875 C 1.25 -6.695312 1.492188 -7.578125 1.921875 -8.359375 C 2.359375 -9.140625 2.953125 -9.753906 3.703125 -10.203125 C 4.460938 -10.660156 5.34375 -10.890625 6.34375 -10.890625 C 7.257812 -10.890625 8.003906 -10.722656 8.578125 -10.390625 C 9.160156 -10.066406 9.664062 -9.632812 10.09375 -9.09375 L 9.234375 -8.34375 C 8.859375 -8.863281 8.4375 -9.238281 7.96875 -9.46875 C 7.507812 -9.695312 6.988281 -9.8125 6.40625 -9.8125 Z M 6.34375 0.265625 C 5.3125 0.265625 4.414062 0.0234375 3.65625 -0.453125 C 2.894531 -0.929688 2.300781 -1.578125 1.875 -2.390625 C 1.445312 -3.210938 1.21875 -4.125 1.1875 -5.125 L 2.390625 -5.125 C 2.421875 -4.300781 2.597656 -3.5625 2.921875 -2.90625 C 3.242188 -2.257812 3.703125 -1.75 4.296875 -1.375 C 4.890625 -1 5.59375 -0.8125 6.40625 -0.8125 C 6.988281 -0.8125 7.515625 -0.921875 7.984375 -1.140625 C 8.453125 -1.359375 8.878906 -1.734375 9.265625 -2.265625 L 10.09375 -1.5625 C 9.664062 -1.019531 9.160156 -0.578125 8.578125 -0.234375 C 8.003906 0.0976562 7.257812 0.265625 6.34375 0.265625 Z M 6.34375 0.265625 "/></g></g></g><g fill="#ffffff" fill-opacity="1"><g transform="translate(164.191559, 221.139845)"><g><path d="M 10.140625 -5.859375 C 10.140625 -6.441406 10.007812 -7.03125 9.75 -7.625 C 9.5 -8.226562 9.109375 -8.742188 8.578125 -9.171875 C 8.046875 -9.609375 7.375 -9.851562 6.5625 -9.90625 L 6.5625 -10.890625 C 7.582031 -10.847656 8.441406 -10.566406 9.140625 -10.046875 C 9.847656 -9.523438 10.382812 -8.84375 10.75 -8 C 11.125 -7.164062 11.3125 -6.253906 11.3125 -5.265625 L 11.3125 -4.953125 L 2.984375 -4.953125 C 2.984375 -4.953125 2.976562 -5.035156 2.96875 -5.203125 C 2.957031 -5.367188 2.960938 -5.585938 2.984375 -5.859375 Z M 1.234375 -5.328125 C 1.234375 -6.316406 1.429688 -7.21875 1.828125 -8.03125 C 2.234375 -8.851562 2.796875 -9.519531 3.515625 -10.03125 C 4.234375 -10.539062 5.0625 -10.820312 6 -10.875 L 6 -9.90625 C 5.207031 -9.851562 4.546875 -9.609375 4.015625 -9.171875 C 3.484375 -8.734375 3.078125 -8.1875 2.796875 -7.53125 C 2.523438 -6.882812 2.382812 -6.1875 2.375 -5.4375 C 2.375 -4.695312 2.503906 -3.988281 2.765625 -3.3125 C 3.035156 -2.644531 3.4375 -2.078125 3.96875 -1.609375 C 4.507812 -1.148438 5.1875 -0.867188 6 -0.765625 L 6 0.234375 C 5.0625 0.148438 4.234375 -0.128906 3.515625 -0.609375 C 2.796875 -1.097656 2.234375 -1.75 1.828125 -2.5625 C 1.429688 -3.375 1.234375 -4.296875 1.234375 -5.328125 Z M 10.640625 -1.453125 C 10.117188 -0.910156 9.523438 -0.492188 8.859375 -0.203125 C 8.191406 0.0859375 7.425781 0.242188 6.5625 0.265625 L 6.5625 -0.71875 L 6.578125 -0.71875 C 7.253906 -0.71875 7.890625 -0.84375 8.484375 -1.09375 C 9.078125 -1.34375 9.597656 -1.710938 10.046875 -2.203125 Z M 10.640625 -1.453125 "/></g></g></g><g fill="#ffffff" fill-opacity="1"><g transform="translate(176.663341, 221.139845)"><g><path d="M 6.625 -9.59375 C 6.09375 -9.601562 5.519531 -9.476562 4.90625 -9.21875 C 4.300781 -8.957031 3.820312 -8.648438 3.46875 -8.296875 L 3.46875 -9.6875 C 3.882812 -10.019531 4.363281 -10.269531 4.90625 -10.4375 C 5.457031 -10.601562 6.03125 -10.6875 6.625 -10.6875 Z M 2.921875 -10.625 L 2.921875 0 L 1.78125 0 L 1.78125 -10.625 Z M 2.921875 -10.625 "/></g></g></g><g fill="#ffffff" fill-opacity="1"><g transform="translate(183.6361, 221.139845)"><g/></g></g><g fill="#ffffff" fill-opacity="1"><g transform="translate(189.333083, 221.139845)"><g><path d="M 3.078125 0 L 1.828125 0 L 1.828125 -14.671875 L 3.078125 -11.65625 Z M 2.4375 -14.671875 L 3.71875 -14.671875 L 9.75 0 L 8.46875 0 Z M 13.6875 -14.671875 L 14.953125 -14.671875 L 9.640625 -1.671875 L 9.015625 -3.1875 Z M 15.546875 -14.671875 L 15.546875 0 L 14.28125 0 L 14.28125 -11.640625 Z M 15.546875 -14.671875 "/></g></g></g><g fill="#ffffff" fill-opacity="1"><g transform="translate(206.709985, 221.139845)"><g><path d="M 8.53125 -7.4375 C 8.53125 -8.226562 8.265625 -8.828125 7.734375 -9.234375 C 7.203125 -9.648438 6.546875 -9.859375 5.765625 -9.859375 C 5.085938 -9.859375 4.488281 -9.710938 3.96875 -9.421875 C 3.445312 -9.140625 2.953125 -8.753906 2.484375 -8.265625 L 1.71875 -9.109375 C 2.269531 -9.710938 2.867188 -10.160156 3.515625 -10.453125 C 4.160156 -10.742188 4.925781 -10.890625 5.8125 -10.890625 C 6.53125 -10.890625 7.179688 -10.769531 7.765625 -10.53125 C 8.347656 -10.300781 8.8125 -9.929688 9.15625 -9.421875 C 9.507812 -8.921875 9.6875 -8.273438 9.6875 -7.484375 L 9.6875 0 L 8.53125 0 Z M 5.328125 -0.8125 C 5.765625 -0.8125 6.234375 -0.921875 6.734375 -1.140625 C 7.234375 -1.359375 7.648438 -1.609375 7.984375 -1.890625 L 7.984375 -0.59375 C 7.554688 -0.269531 7.085938 -0.046875 6.578125 0.078125 C 6.078125 0.203125 5.523438 0.265625 4.921875 0.265625 C 4.328125 0.265625 3.742188 0.128906 3.171875 -0.140625 C 2.597656 -0.410156 2.125 -0.8125 1.75 -1.34375 C 1.382812 -1.875 1.203125 -2.519531 1.203125 -3.28125 C 1.203125 -4.050781 1.394531 -4.707031 1.78125 -5.25 C 2.164062 -5.800781 2.671875 -6.21875 3.296875 -6.5 C 3.929688 -6.789062 4.609375 -6.9375 5.328125 -6.9375 C 5.941406 -6.9375 6.472656 -6.867188 6.921875 -6.734375 C 7.367188 -6.597656 7.722656 -6.46875 7.984375 -6.34375 L 7.984375 -4.96875 C 7.585938 -5.238281 7.148438 -5.445312 6.671875 -5.59375 C 6.203125 -5.75 5.753906 -5.828125 5.328125 -5.828125 C 4.460938 -5.828125 3.757812 -5.585938 3.21875 -5.109375 C 2.6875 -4.640625 2.421875 -4.019531 2.421875 -3.25 C 2.421875 -2.507812 2.6875 -1.914062 3.21875 -1.46875 C 3.757812 -1.03125 4.460938 -0.8125 5.328125 -0.8125 Z M 5.328125 -0.8125 "/></g></g></g><g fill="#ffffff" fill-opacity="1"><g transform="translate(218.169938, 221.139845)"><g><path d="M 6.578125 -10.890625 C 7.234375 -10.890625 7.828125 -10.765625 8.359375 -10.515625 C 8.890625 -10.273438 9.3125 -9.9375 9.625 -9.5 C 9.9375 -9.0625 10.09375 -8.539062 10.09375 -7.9375 L 10.09375 0 L 8.90625 0 L 8.90625 -7.65625 C 8.894531 -8.332031 8.660156 -8.832031 8.203125 -9.15625 C 7.753906 -9.488281 7.140625 -9.65625 6.359375 -9.65625 C 5.921875 -9.65625 5.425781 -9.550781 4.875 -9.34375 C 4.320312 -9.144531 3.867188 -8.875 3.515625 -8.53125 L 3.515625 -9.984375 C 3.867188 -10.234375 4.316406 -10.445312 4.859375 -10.625 C 5.398438 -10.800781 5.972656 -10.890625 6.578125 -10.890625 Z M 1.78125 -10.625 L 2.96875 -10.625 L 2.96875 0 L 1.78125 0 Z M 1.78125 -10.625 "/></g></g></g><g fill="#ffffff" fill-opacity="1"><g transform="translate(230.047817, 221.139845)"><g><path d="M 8.53125 -7.4375 C 8.53125 -8.226562 8.265625 -8.828125 7.734375 -9.234375 C 7.203125 -9.648438 6.546875 -9.859375 5.765625 -9.859375 C 5.085938 -9.859375 4.488281 -9.710938 3.96875 -9.421875 C 3.445312 -9.140625 2.953125 -8.753906 2.484375 -8.265625 L 1.71875 -9.109375 C 2.269531 -9.710938 2.867188 -10.160156 3.515625 -10.453125 C 4.160156 -10.742188 4.925781 -10.890625 5.8125 -10.890625 C 6.53125 -10.890625 7.179688 -10.769531 7.765625 -10.53125 C 8.347656 -10.300781 8.8125 -9.929688 9.15625 -9.421875 C 9.507812 -8.921875 9.6875 -8.273438 9.6875 -7.484375 L 9.6875 0 L 8.53125 0 Z M 5.328125 -0.8125 C 5.765625 -0.8125 6.234375 -0.921875 6.734375 -1.140625 C 7.234375 -1.359375 7.648438 -1.609375 7.984375 -1.890625 L 7.984375 -0.59375 C 7.554688 -0.269531 7.085938 -0.046875 6.578125 0.078125 C 6.078125 0.203125 5.523438 0.265625 4.921875 0.265625 C 4.328125 0.265625 3.742188 0.128906 3.171875 -0.140625 C 2.597656 -0.410156 2.125 -0.8125 1.75 -1.34375 C 1.382812 -1.875 1.203125 -2.519531 1.203125 -3.28125 C 1.203125 -4.050781 1.394531 -4.707031 1.78125 -5.25 C 2.164062 -5.800781 2.671875 -6.21875 3.296875 -6.5 C 3.929688 -6.789062 4.609375 -6.9375 5.328125 -6.9375 C 5.941406 -6.9375 6.472656 -6.867188 6.921875 -6.734375 C 7.367188 -6.597656 7.722656 -6.46875 7.984375 -6.34375 L 7.984375 -4.96875 C 7.585938 -5.238281 7.148438 -5.445312 6.671875 -5.59375 C 6.203125 -5.75 5.753906 -5.828125 5.328125 -5.828125 C 4.460938 -5.828125 3.757812 -5.585938 3.21875 -5.109375 C 2.6875 -4.640625 2.421875 -4.019531 2.421875 -3.25 C 2.421875 -2.507812 2.6875 -1.914062 3.21875 -1.46875 C 3.757812 -1.03125 4.460938 -0.8125 5.328125 -0.8125 Z M 5.328125 -0.8125 "/></g></g></g><g fill="#ffffff" fill-opacity="1"><g transform="translate(241.50777, 221.139845)"><g><path d="M 6.109375 -0.859375 C 6.671875 -0.859375 7.210938 -1.046875 7.734375 -1.421875 C 8.253906 -1.796875 8.695312 -2.207031 9.0625 -2.65625 L 9.0625 -1.0625 C 8.664062 -0.675781 8.195312 -0.359375 7.65625 -0.109375 C 7.125 0.140625 6.546875 0.265625 5.921875 0.265625 C 4.984375 0.265625 4.15625 0.0390625 3.4375 -0.40625 C 2.726562 -0.863281 2.175781 -1.515625 1.78125 -2.359375 C 1.382812 -3.203125 1.1875 -4.191406 1.1875 -5.328125 C 1.1875 -6.453125 1.382812 -7.425781 1.78125 -8.25 C 2.175781 -9.082031 2.726562 -9.726562 3.4375 -10.1875 C 4.15625 -10.65625 4.984375 -10.890625 5.921875 -10.890625 C 7.160156 -10.890625 8.207031 -10.597656 9.0625 -10.015625 L 9.0625 -8.609375 C 8.675781 -8.972656 8.210938 -9.269531 7.671875 -9.5 C 7.128906 -9.738281 6.570312 -9.859375 6 -9.859375 C 5.226562 -9.859375 4.570312 -9.660156 4.03125 -9.265625 C 3.488281 -8.867188 3.078125 -8.328125 2.796875 -7.640625 C 2.523438 -6.960938 2.390625 -6.191406 2.390625 -5.328125 C 2.390625 -4.472656 2.535156 -3.707031 2.828125 -3.03125 C 3.128906 -2.363281 3.554688 -1.832031 4.109375 -1.4375 C 4.671875 -1.050781 5.335938 -0.859375 6.109375 -0.859375 Z M 6 4.3125 C 5.101562 4.3125 4.335938 4.203125 3.703125 3.984375 C 3.066406 3.765625 2.429688 3.335938 1.796875 2.703125 L 2.46875 1.78125 C 2.9375 2.320312 3.472656 2.695312 4.078125 2.90625 C 4.691406 3.125 5.332031 3.234375 6 3.234375 C 6.644531 3.234375 7.238281 3.125 7.78125 2.90625 C 8.332031 2.6875 8.773438 2.328125 9.109375 1.828125 C 9.441406 1.335938 9.609375 0.695312 9.609375 -0.09375 L 9.609375 -10.625 L 10.78125 -10.625 L 10.78125 -0.09375 C 10.78125 0.976562 10.554688 1.835938 10.109375 2.484375 C 9.671875 3.128906 9.09375 3.59375 8.375 3.875 C 7.65625 4.164062 6.863281 4.3125 6 4.3125 Z M 6 4.3125 "/></g></g></g><g fill="#ffffff" fill-opacity="1"><g transform="translate(254.045538, 221.139845)"><g><path d="M 10.140625 -5.859375 C 10.140625 -6.441406 10.007812 -7.03125 9.75 -7.625 C 9.5 -8.226562 9.109375 -8.742188 8.578125 -9.171875 C 8.046875 -9.609375 7.375 -9.851562 6.5625 -9.90625 L 6.5625 -10.890625 C 7.582031 -10.847656 8.441406 -10.566406 9.140625 -10.046875 C 9.847656 -9.523438 10.382812 -8.84375 10.75 -8 C 11.125 -7.164062 11.3125 -6.253906 11.3125 -5.265625 L 11.3125 -4.953125 L 2.984375 -4.953125 C 2.984375 -4.953125 2.976562 -5.035156 2.96875 -5.203125 C 2.957031 -5.367188 2.960938 -5.585938 2.984375 -5.859375 Z M 1.234375 -5.328125 C 1.234375 -6.316406 1.429688 -7.21875 1.828125 -8.03125 C 2.234375 -8.851562 2.796875 -9.519531 3.515625 -10.03125 C 4.234375 -10.539062 5.0625 -10.820312 6 -10.875 L 6 -9.90625 C 5.207031 -9.851562 4.546875 -9.609375 4.015625 -9.171875 C 3.484375 -8.734375 3.078125 -8.1875 2.796875 -7.53125 C 2.523438 -6.882812 2.382812 -6.1875 2.375 -5.4375 C 2.375 -4.695312 2.503906 -3.988281 2.765625 -3.3125 C 3.035156 -2.644531 3.4375 -2.078125 3.96875 -1.609375 C 4.507812 -1.148438 5.1875 -0.867188 6 -0.765625 L 6 0.234375 C 5.0625 0.148438 4.234375 -0.128906 3.515625 -0.609375 C 2.796875 -1.097656 2.234375 -1.75 1.828125 -2.5625 C 1.429688 -3.375 1.234375 -4.296875 1.234375 -5.328125 Z M 10.640625 -1.453125 C 10.117188 -0.910156 9.523438 -0.492188 8.859375 -0.203125 C 8.191406 0.0859375 7.425781 0.242188 6.5625 0.265625 L 6.5625 -0.71875 L 6.578125 -0.71875 C 7.253906 -0.71875 7.890625 -0.84375 8.484375 -1.09375 C 9.078125 -1.34375 9.597656 -1.710938 10.046875 -2.203125 Z M 10.640625 -1.453125 "/></g></g></g><g fill="#ffffff" fill-opacity="1"><g transform="translate(266.51732, 221.139845)"><g><path d="M 6.625 -9.59375 C 6.09375 -9.601562 5.519531 -9.476562 4.90625 -9.21875 C 4.300781 -8.957031 3.820312 -8.648438 3.46875 -8.296875 L 3.46875 -9.6875 C 3.882812 -10.019531 4.363281 -10.269531 4.90625 -10.4375 C 5.457031 -10.601562 6.03125 -10.6875 6.625 -10.6875 Z M 2.921875 -10.625 L 2.921875 0 L 1.78125 0 L 1.78125 -10.625 Z M 2.921875 -10.625 "/></g></g></g></svg>