<svg xmlns="http://www.w3.org/2000/svg" xmlns:xlink="http://www.w3.org/1999/xlink" width="500" zoomAndPan="magnify" viewBox="0 0 375 374.999991" height="500" preserveAspectRatio="xMidYMid meet" version="1.0"><defs><g/></defs><g fill="#ffffff" fill-opacity="1"><g transform="translate(120.003748, 195.389423)"><g><path d="M 46.21875 -49.375 C 46.613281 -49.375 46.957031 -49.222656 47.25 -48.921875 C 47.550781 -48.628906 47.703125 -48.285156 47.703125 -47.890625 L 47.703125 -41.078125 C 47.703125 -40.679688 47.550781 -40.332031 47.25 -40.03125 C 46.957031 -39.738281 46.613281 -39.59375 46.21875 -39.59375 L 18.65625 -39.59375 C 18.195312 -39.59375 17.707031 -39.332031 17.1875 -38.8125 L 14.015625 -35.84375 C 13.554688 -35.382812 13.328125 -34.828125 13.328125 -34.171875 L 13.328125 -22.3125 L 39.890625 -22.3125 C 40.285156 -22.3125 40.628906 -22.160156 40.921875 -21.859375 C 41.222656 -21.566406 41.375 -21.226562 41.375 -20.84375 L 41.375 -14.015625 C 41.375 -13.628906 41.222656 -13.285156 40.921875 -12.984375 C 40.628906 -12.691406 40.285156 -12.546875 39.890625 -12.546875 L 13.328125 -12.546875 L 13.328125 -1.484375 C 13.328125 -1.085938 13.175781 -0.738281 12.875 -0.4375 C 12.582031 -0.144531 12.238281 0 11.84375 0 L 4.4375 0 C 4.039062 0 3.695312 -0.144531 3.40625 -0.4375 C 3.113281 -0.738281 2.96875 -1.085938 2.96875 -1.484375 L 2.96875 -36.734375 C 2.96875 -37.265625 3.097656 -37.757812 3.359375 -38.21875 C 3.617188 -38.675781 3.878906 -39.035156 4.140625 -39.296875 L 13.03125 -48.1875 C 13.820312 -48.976562 14.78125 -49.375 15.90625 -49.375 Z M 46.21875 -49.375 "/></g></g></g><g fill="#ffffff" fill-opacity="1"><g transform="translate(170.658453, 195.389423)"><g><path d="M 80.28125 -39.296875 C 81.007812 -38.578125 81.375 -37.722656 81.375 -36.734375 L 81.375 -1.484375 C 81.375 -1.085938 81.222656 -0.738281 80.921875 -0.4375 C 80.628906 -0.144531 80.285156 0 79.890625 0 L 73.265625 0 C 72.878906 0 72.535156 -0.144531 72.234375 -0.4375 C 71.941406 -0.738281 71.796875 -1.085938 71.796875 -1.484375 L 71.796875 -33.96875 C 71.796875 -34.695312 71.5625 -35.257812 71.09375 -35.65625 L 67.34375 -39.296875 C 67.082031 -39.492188 66.753906 -39.59375 66.359375 -39.59375 L 53.21875 -39.59375 C 52.894531 -39.59375 52.566406 -39.492188 52.234375 -39.296875 L 48.484375 -35.84375 C 48.222656 -35.644531 48.023438 -35.347656 47.890625 -34.953125 L 47.890625 -1.484375 C 47.890625 -1.085938 47.738281 -0.738281 47.4375 -0.4375 C 47.144531 -0.144531 46.800781 0 46.40625 0 L 39.703125 0 C 39.304688 0 38.957031 -0.144531 38.65625 -0.4375 C 38.363281 -0.738281 38.21875 -1.085938 38.21875 -1.484375 L 38.21875 -34.953125 C 38.082031 -35.347656 37.882812 -35.644531 37.625 -35.84375 L 33.875 -39.296875 C 33.601562 -39.492188 33.273438 -39.59375 32.890625 -39.59375 L 18.265625 -39.59375 C 17.941406 -39.59375 17.613281 -39.492188 17.28125 -39.296875 L 13.234375 -35.453125 C 12.773438 -34.992188 12.546875 -34.429688 12.546875 -33.765625 L 12.546875 -1.484375 C 12.546875 -1.085938 12.394531 -0.738281 12.09375 -0.4375 C 11.800781 -0.144531 11.457031 0 11.0625 0 L 4.4375 0 C 4.039062 0 3.695312 -0.144531 3.40625 -0.4375 C 3.113281 -0.738281 2.96875 -1.085938 2.96875 -1.484375 L 2.96875 -36.734375 C 2.96875 -37.265625 3.082031 -37.742188 3.3125 -38.171875 C 3.539062 -38.597656 3.785156 -38.972656 4.046875 -39.296875 L 12.734375 -48.1875 C 13.523438 -48.976562 14.515625 -49.375 15.703125 -49.375 L 35.15625 -49.375 C 36.34375 -49.375 37.332031 -48.976562 38.125 -48.1875 L 43.0625 -43.15625 L 48 -48.1875 C 48.78125 -48.976562 49.765625 -49.375 50.953125 -49.375 L 68.625 -49.375 C 69.945312 -49.375 70.9375 -48.976562 71.59375 -48.1875 Z M 80.28125 -39.296875 "/></g></g></g></svg>